<?xml version="1.0" encoding="UTF-8"?>
<svg viewBox="0 0 108 32" version="1.1" xmlns="http://www.w3.org/2000/svg" xmlns:xlink="http://www.w3.org/1999/xlink">
    <!-- Generator: Sketch 48.1 (47250) - http://www.bohemiancoding.com/sketch -->
    <title>download-on-the-app-store-apple-brand-logo-3a5079b00b08d88f copy</title>
    <desc>Created with Sketch.</desc>
    <defs>
        <linearGradient x1="49.9984472%" y1="100.265508%" x2="49.9984472%" y2="-260.382794%" id="linearGradient-1">
            <stop stop-color="#1A1A1A" stop-opacity="0.1" offset="0%"></stop>
            <stop stop-color="#212121" stop-opacity="0.151" offset="12.3%"></stop>
            <stop stop-color="#353535" stop-opacity="0.227" offset="30.8%"></stop>
            <stop stop-color="#575757" stop-opacity="0.318" offset="53.2%"></stop>
            <stop stop-color="#858585" stop-opacity="0.421" offset="78.3%"></stop>
            <stop stop-color="#B3B3B3" stop-opacity="0.51" offset="100%"></stop>
        </linearGradient>
    </defs>
    <g id="Footer_desktop_dark" stroke="none" stroke-width="1" fill="none" fill-rule="evenodd" transform="translate(-1114.000000, -752.000000)">
        <g id="Group-7" transform="translate(967.000000, 752.000000)" fill-rule="nonzero">
            <g id="download-on-the-app-store-apple-brand-logo-3a5079b00b08d88f-copy" transform="translate(147.000000, 0.000000)">
                <path d="M107.085196,28.046866 C107.085196,28.8552156 106.762367,29.6304108 106.187817,30.2017018 C105.613266,30.7729928 104.834125,31.0935166 104.022012,31.0926724 L3.77824618,31.0926724 C2.08636652,31.0944303 0.713272608,29.7309041 0.711067688,28.046866 L0.711067688,3.75755478 C0.713271441,2.07287383 2.08571978,0.708209515 3.77824618,0.707772224 L104.021213,0.707772224 C104.833759,0.707772196 105.613012,1.02911303 106.187494,1.60108108 C106.761975,2.17304912 107.084609,2.94877529 107.084397,3.75755478 L107.085196,28.046866 Z" id="Shape" fill="#FFFFFF"></path>
                <path d="M104.022012,31.8012398 L3.77824618,31.8012398 C1.69425395,31.800805 0.00396526721,30.1211962 0,28.046866 L0,3.75835003 C0.0030829305,1.68301172 1.69324333,0.00175166378 3.77824618,0 L104.021213,0 C106.105852,0.00262558432 107.795499,1.68337464 107.799459,3.75835003 L107.799459,28.046866 C107.801057,30.1176962 106.103283,31.8012398 104.022012,31.8012398 Z" id="Shape" fill="#A6A6A6"></path>
                <path d="M107.085196,28.046866 C107.085196,28.8552156 106.762367,29.6304108 106.187817,30.2017018 C105.613266,30.7729928 104.834125,31.0935166 104.022012,31.0926724 L3.77824618,31.0926724 C2.08636652,31.0944303 0.713272608,29.7309041 0.711067688,28.046866 L0.711067688,3.75755478 C0.713271441,2.07287383 2.08571978,0.708209515 3.77824618,0.707772224 L104.021213,0.707772224 C104.833759,0.707772196 105.613012,1.02911303 106.187494,1.60108108 C106.761975,2.17304912 107.084609,2.94877529 107.084397,3.75755478 L107.085196,28.046866 Z" id="Shape" fill="#000000"></path>
                <path d="M24.0708397,15.7332199 C24.04767,13.1701301 26.1792752,11.9231786 26.2767474,11.8651254 C25.0695302,10.1131903 23.1983836,9.87382014 22.5408457,9.85473415 C20.9693062,9.69011747 19.4449049,10.790743 18.6443546,10.790743 C17.8278252,10.790743 16.5950415,9.87063915 15.2663836,9.89767763 C13.5566253,9.92392087 11.9571225,10.9092352 11.0798727,12.4392956 C9.26944642,15.5590602 10.6196761,20.1436746 12.3542019,22.6654114 C13.2218642,23.9012294 14.2357349,25.2793971 15.5627949,25.2308869 C16.8610927,25.1784004 17.3460568,24.4078035 18.9128026,24.4078035 C20.4651672,24.4078035 20.9205701,25.2308869 22.2739956,25.1998722 C23.6673687,25.1784004 24.5446185,23.9592826 25.3819207,22.7131264 C26.384606,21.2983772 26.787278,19.9035092 26.8032571,19.8319368 C26.771299,19.8208033 24.0980041,18.8044742 24.0708397,15.7332199 Z M21.5141918,8.1958433 C22.2124762,7.32663539 22.6902498,6.1440991 22.5576237,4.94406732 C21.5469489,4.9886013 20.2830061,5.6399108 19.5551604,6.49003272 C18.9112047,7.23915792 18.3359589,8.46702344 18.4845641,9.62172599 C19.6198755,9.70602246 20.7855472,9.05153197 21.5141918,8.1958433 Z" id="Shape" fill="#FFFFFF"></path>
                <path d="M104.022012,4.17966998e-16 L50.3284122,0 L71.3592378,31.8012398 L104.022012,31.8012398 C106.106392,31.7994902 107.796296,30.1191974 107.800258,28.0444803 L107.800258,3.75835003 C107.796736,1.68319323 106.106833,0.00218880033 104.022012,4.17966998e-16 Z" id="Shape" fill="url(#linearGradient-1)"></path>
                <g id="Group" transform="translate(33.556003, 13.519245)" fill="#FFFFFF">
                    <path d="M9.31978043,11.5343015 L7.50535939,11.5343015 L6.51146254,8.42567046 L3.05679211,8.42567046 L2.11003344,11.5343015 L0.343549557,11.5343015 L3.76706084,0.951118629 L5.88108905,0.951118629 L9.31978043,11.5343015 Z M6.21185536,7.12146097 L5.31303385,4.3579683 C5.21795851,4.07565466 5.03899316,3.41082592 4.77693675,2.36427733 L4.74497865,2.36427733 C4.63951693,2.81438865 4.47093796,3.47921739 4.2400407,4.3579683 L3.35639928,7.12146097 L6.21185536,7.12146097 Z M18.1066596,7.62485402 C18.1066596,8.92270152 17.7527236,9.94857361 17.0440528,10.7016751 C16.4096845,11.3720706 15.6211185,11.7068707 14.6807514,11.7068707 C13.6652828,11.7068707 12.9350403,11.3466226 12.4916217,10.6245359 L12.4916217,14.628618 L10.788255,14.628618 L10.788255,6.411303 C10.788255,5.59617206 10.7666833,4.76036464 10.7251378,3.90308548 L12.2231737,3.90308548 L12.318249,5.11266025 L12.3502071,5.11266025 C12.9182623,4.20130411 13.780332,3.74562604 14.9372152,3.74562604 C15.8416293,3.74562604 16.5966394,4.10110265 17.2006475,4.81285112 C17.8038566,5.52619009 18.1066596,6.46299423 18.1066596,7.62485402 Z M16.3713348,7.6868835 C16.3713348,6.94412029 16.2035548,6.33177803 15.8663969,5.84906147 C15.4980798,5.34725891 15.0035282,5.09596001 14.3835411,5.09596001 C13.9632921,5.09596001 13.5813928,5.23592396 13.2402401,5.5118756 C12.8982885,5.79021299 12.6745818,6.1536421 12.569919,6.60375342 C12.5231955,6.77208522 12.4966455,6.94532848 12.4908227,7.11987047 L12.4908227,8.39306522 C12.4908227,8.94735426 12.6617986,9.41575632 13.0037502,9.79906667 C13.3457019,10.1807865 13.7899194,10.3724417 14.3364029,10.3724417 C14.9779617,10.3724417 15.477307,10.125119 15.8344388,9.63444999 C16.1923695,9.14219043 16.3713348,8.49326668 16.3713348,7.6868835 Z M26.9246978,7.62485402 C26.9246978,8.92270152 26.5707619,9.94857361 25.8620911,10.7016751 C25.2269239,11.3720706 24.4391568,11.7068707 23.4979908,11.7068707 C22.4825222,11.7068707 21.7522796,11.3466226 21.308861,10.6245359 L21.308861,14.628618 L19.6054944,14.628618 L19.6054944,6.411303 C19.6054944,5.59617206 19.5839227,4.76036464 19.5423771,3.90308548 L21.040413,3.90308548 L21.1354883,5.11266025 L21.1674464,5.11266025 C21.7347027,4.20130411 22.5967724,3.74562604 23.7544545,3.74562604 C24.6580697,3.74562604 25.4130798,4.10110265 26.0186858,4.81285112 C26.6210959,5.52619009 26.9246978,6.46299423 26.9246978,7.62485402 Z M25.1885742,7.6868835 C25.1885742,6.94412029 25.0199952,6.33177803 24.6828373,5.84906147 C24.3145202,5.34725891 23.8215665,5.09596001 23.2015794,5.09596001 C22.7813304,5.09596001 22.3994311,5.23592396 22.0566805,5.5118756 C21.7147289,5.79021299 21.4918211,6.1536421 21.3871584,6.60375342 C21.3352264,6.81369934 21.3072631,6.98467802 21.3072631,7.11987047 L21.3072631,8.39306522 C21.3072631,8.94735426 21.4790379,9.41575632 21.8193916,9.79906667 C22.1613433,10.1799913 22.6055609,10.3724417 23.1536422,10.3724417 C23.796,10.3724417 24.2953453,10.125119 24.6516781,9.63444999 C25.0096088,9.14219043 25.1885742,8.49326668 25.1885742,7.6868835 Z M36.7837712,8.5656344 C36.7837712,9.4666523 36.467386,10.1990773 35.8386104,10.7644998 C35.1467176,11.3816136 34.1807841,11.6909657 32.9424078,11.6909657 C31.7983078,11.6909657 30.8811104,11.4714768 30.1892176,11.0317037 L30.5831012,9.61854499 C31.3301217,10.0591133 32.1506459,10.2786022 33.0438747,10.2786022 C33.6862325,10.2786022 34.1855778,10.1338668 34.5419106,9.84678165 C34.8990423,9.55890127 35.0796056,9.17400042 35.0796056,8.6936696 C35.0796056,8.26343952 34.9302015,7.90319141 34.6369859,7.60974428 C34.3421725,7.31709239 33.8548115,7.04432175 33.1701092,6.7938181 C31.30855,6.10274612 30.3769714,5.09198376 30.3769714,3.76232628 C30.3769714,2.89391362 30.7061398,2.1829604 31.3628788,1.62708086 C32.0196177,1.07199658 32.8904759,0.79445444 33.9738554,0.79445444 C34.9413868,0.79445444 35.7475298,0.962252124 36.3874908,1.29705224 L35.9600512,2.6791962 C35.357641,2.35473433 34.6777325,2.19250339 33.9171298,2.19250339 C33.3163175,2.19250339 32.8449356,2.33962459 32.5077776,2.63227647 C32.2241495,2.89391362 32.0803381,3.21280875 32.0803381,3.5913476 C32.0803381,4.00885368 32.2441233,4.35558255 32.5700959,4.62755794 C32.8529251,4.8780616 33.3690484,5.15083224 34.11527,5.44348412 C35.0308695,5.81088948 35.7035875,6.23873381 36.1342228,6.73019812 C36.568054,7.22166243 36.7837712,7.83479994 36.7837712,8.5656344 Z M42.4299682,5.17548498 L40.5524299,5.17548498 L40.5524299,8.88055328 C40.5524299,9.82292416 40.8831962,10.2929167 41.5463268,10.2929167 C41.8507277,10.2929167 42.1031967,10.2674687 42.3029348,10.214187 L42.350073,11.5016963 C42.0145129,11.6265505 41.5726922,11.6893752 41.0254098,11.6893752 C40.3526918,11.6893752 39.8269811,11.484996 39.4474787,11.0762377 C39.0695742,10.6674793 38.8794235,9.98276935 38.8794235,9.01892673 L38.8794235,5.17230398 L37.76089,5.17230398 L37.76089,3.89990448 L38.8794235,3.89990448 L38.8794235,2.50265077 L40.5524299,2.00005297 L40.5524299,3.89990448 L42.4299682,3.89990448 L42.4299682,5.17548498 Z M50.8844831,7.65586876 C50.8844831,8.82886205 50.5473252,9.79190943 49.8746072,10.5450109 C49.1707301,11.3203793 48.2343578,11.7068707 47.0670883,11.7068707 C45.9405653,11.7068707 45.0449396,11.3354891 44.3770153,10.5935211 C43.7090911,9.84996265 43.375129,8.91315852 43.375129,7.78310871 C43.375129,6.60057242 43.7202764,5.6319583 44.4081745,4.87885684 C45.0976705,4.12496014 46.0260532,3.74801179 47.1933228,3.74801179 C48.3182478,3.74801179 49.2218631,4.12018864 49.9057664,4.86295185 C50.5593095,5.58344807 50.8844831,6.51389021 50.8844831,7.65586876 Z M49.1187982,7.694836 C49.1187982,6.99581152 48.9669972,6.39619325 48.6625963,5.8943907 C48.3054646,5.28841043 47.794135,4.9854203 47.1318034,4.9854203 C46.449498,4.9854203 45.9261842,5.28841043 45.5698514,5.8943907 C45.2646515,6.39619325 45.1128506,7.00614976 45.1128506,7.72664598 C45.1128506,8.42646571 45.2646515,9.02767447 45.5698514,9.52788653 C45.9381685,10.1338668 46.4518949,10.4368569 47.1174223,10.4368569 C47.7685685,10.4368569 48.2790992,10.1275048 48.6482152,9.51277679 C48.9614046,8.99904549 49.1187982,8.39545097 49.1187982,7.694836 Z M56.4236205,5.39417864 C56.246458,5.36234245 56.06675,5.34663764 55.8867245,5.34725891 C55.2875101,5.34725891 54.8241177,5.57151932 54.4981451,6.02322115 C54.2153159,6.42084599 54.0731024,6.9234438 54.0731024,7.53021931 L54.0731024,11.5343015 L52.3697357,11.5343015 L52.3697357,6.30633004 C52.3712548,5.50524584 52.354739,4.70422834 52.3202007,3.90388073 L53.8038554,3.90388073 L53.8661737,5.36395916 L53.9133119,5.36395916 C54.0938751,4.8621566 54.3767043,4.45737451 54.7649952,4.15438438 C55.1204119,3.88962804 55.5522544,3.74625471 55.996181,3.74562604 C56.1535746,3.74562604 56.2957881,3.75675953 56.4220226,3.77664078 L56.4236205,5.39417864 Z M64.0416322,7.35765013 C64.0459516,7.61539027 64.0250806,7.87293774 63.9793139,8.12665658 L58.869214,8.12665658 C58.8883889,8.88055328 59.1360641,9.45790456 59.6106419,9.8555294 C60.0412772,10.2102108 60.5981471,10.3883467 61.2820504,10.3883467 C62.0386584,10.3883467 62.7289533,10.2690592 63.3497394,10.0280986 L63.6165895,11.2042729 C62.8911407,11.5191918 62.0346636,11.6758559 61.0463594,11.6758559 C59.8575182,11.6758559 58.9243417,11.3275366 58.2452321,10.6324883 C57.5677204,9.93664487 57.2281656,9.00143123 57.2281656,7.83002844 C57.2281656,6.68009739 57.5437519,5.72182152 58.1757233,4.95758656 C58.8372559,4.14166038 59.7312837,3.73369729 60.8562088,3.73369729 C61.96116,3.73369729 62.7976632,4.14166038 63.3657184,4.95758656 C63.8155287,5.60412456 64.0416322,6.40573625 64.0416322,7.35765013 Z M62.4173619,6.91787705 C62.4293461,6.414484 62.3174928,5.98107291 62.0865955,5.61446281 C61.7917821,5.14208449 61.3379771,4.90669058 60.7299743,4.90669058 C60.1731044,4.90669058 59.7192994,5.13651774 59.3741519,5.59776256 C59.0905238,5.96437267 58.9219449,6.404941 58.8700129,6.91628655 L62.4173619,6.91787705 Z" id="Shape"></path>
                </g>
                <g id="Group" transform="translate(34.354956, 4.771498)" fill="#FFFFFF">
                    <path d="M1.76648389,5.95721542 C1.29270508,5.95721542 0.882842467,5.93415318 0.541689767,5.89518595 L0.541689767,0.778549446 C1.01883104,0.705183787 1.50100018,0.669022516 1.98379895,0.670395488 C3.93723772,0.670395488 4.83685818,1.62708086 4.83685818,3.18656551 C4.83685818,4.9854203 3.77425141,5.95721542 1.76648389,5.95721542 Z M2.05250887,1.32647648 C1.78885455,1.32647648 1.56434891,1.34238148 1.37819299,1.38055346 L1.37819299,5.27011969 C1.478861,5.28602469 1.6722075,5.29318193 1.94385133,5.29318193 C3.22377317,5.29318193 3.95241781,4.56791422 3.95241781,3.20962775 C3.95241781,1.99846247 3.29328203,1.32647648 2.05250887,1.32647648 Z M7.64038236,5.99618266 C6.53942587,5.99618266 5.82596133,5.17787073 5.82596133,4.06690691 C5.82596133,2.90902336 6.55460597,2.08355419 7.70270065,2.08355419 C8.78767809,2.08355419 9.51712168,2.86289888 9.51712168,4.00567269 C9.51712168,5.17787073 8.76530742,5.99618266 7.64038236,5.99618266 Z M7.67234046,2.69271545 C7.06753345,2.69271545 6.6800415,3.25575223 6.6800415,4.04304942 C6.6800415,4.81523687 7.07552297,5.37827365 7.66435093,5.37827365 C8.2531789,5.37827365 8.64866036,4.77626963 8.64866036,4.02714443 C8.64866036,3.26370473 8.26116842,2.69271545 7.67234046,2.69271545 Z M15.7952901,2.16069341 L14.6168352,5.91109094 L13.8490419,5.91109094 L13.360882,4.28241958 C13.2395042,3.88403563 13.1384408,3.47979781 13.058079,3.0712543 L13.0420999,3.0712543 C12.9805806,3.48001264 12.8639335,3.88956623 12.7400959,4.28241958 L12.2207768,5.91109094 L11.444994,5.91109094 L10.336048,2.16069341 L11.1965198,2.16069341 L11.6231604,3.94364321 C11.7238284,4.36830654 11.8085173,4.76911239 11.8788252,5.14765124 L11.8948042,5.14765124 C11.9563235,4.83193711 12.0569915,4.43749327 12.2047978,3.95159571 L12.7400959,2.16148866 L13.4224013,2.16148866 L13.9345298,3.91342372 C14.0583675,4.33808706 14.1590355,4.75479789 14.2373328,5.14844649 L14.2597035,5.14844649 C14.3140322,4.76275039 14.3995202,4.3531968 14.5153683,3.91342372 L14.973168,2.16148866 L15.7952901,2.16069341 Z M20.133602,5.91109094 L19.2962998,5.91109094 L19.2962998,3.75755478 C19.2962998,3.09431654 19.040635,2.76190217 18.536496,2.76190217 C18.0403465,2.76190217 17.6991938,3.18656551 17.6991938,3.68041556 L17.6991938,5.91109094 L16.8618916,5.91109094 L16.8618916,3.23268999 C16.8618916,2.90107087 16.8539021,2.54559426 16.8307325,2.15989816 L17.5673667,2.15989816 L17.6065153,2.73883993 L17.6296849,2.73883993 C17.8549895,2.33803409 18.3119903,2.08355419 18.8241189,2.08355419 C19.6150818,2.08355419 20.1344009,2.6855582 20.1344009,3.66530582 L20.133602,5.91109094 Z M22.4425746,5.91109094 L21.6044734,5.91109094 L21.6044734,0.439773078 L22.4425746,0.439773078 L22.4425746,5.91109094 Z M25.4953719,5.99618266 C24.3952144,5.99618266 23.6809509,5.17787073 23.6809509,4.06690691 C23.6809509,2.90902336 24.4095955,2.08355419 25.5568912,2.08355419 C26.6426676,2.08355419 27.3713123,2.86289888 27.3713123,4.00567269 C27.3721112,5.17787073 26.619498,5.99618266 25.4953719,5.99618266 Z M25.526531,2.69271545 C24.921724,2.69271545 24.5342321,3.25575223 24.5342321,4.04304942 C24.5342321,4.81523687 24.9305125,5.37827365 25.5177426,5.37827365 C26.1073695,5.37827365 26.502052,4.77626963 26.502052,4.02714443 C26.502851,3.26370473 26.116158,2.69271545 25.526531,2.69271545 Z M30.6725838,5.91109094 L30.6118634,5.47927036 L30.5894928,5.47927036 C30.333828,5.82679447 29.9607172,5.99618266 29.4877373,5.99618266 C28.8126225,5.99618266 28.333251,5.52539484 28.333251,4.89237609 C28.333251,3.96670545 29.1393941,3.48796514 30.535164,3.48796514 L30.535164,3.41877841 C30.535164,2.92492836 30.2723086,2.6776057 29.7529896,2.6776057 C29.3814767,2.6776057 29.0555041,2.77064992 28.7686801,2.9559431 L28.5985032,2.40801606 C28.9468465,2.19170814 29.3814767,2.08355419 29.8920073,2.08355419 C30.8763167,2.08355419 31.3732651,2.60046648 31.3732651,3.63508633 L31.3732651,5.01643504 C31.3732651,5.39497389 31.3900431,5.68842103 31.4275939,5.91188619 L30.6725838,5.91109094 Z M30.5575347,4.04304942 C29.627554,4.04304942 29.1609658,4.26730983 29.1609658,4.79933188 C29.1609658,5.19298047 29.4014505,5.3854309 29.7354126,5.3854309 C30.1612543,5.3854309 30.5575347,5.06176427 30.5575347,4.6219912 L30.5575347,4.04304942 Z M35.4391342,5.91109094 L35.3999855,5.30908693 L35.3768159,5.30908693 C35.1363312,5.76396975 34.7320613,5.99618266 34.1672019,5.99618266 C33.2587929,5.99618266 32.586075,5.20093297 32.586075,4.08201666 C32.586075,2.90902336 33.2835605,2.08275894 34.2359118,2.08275894 C34.7400508,2.08275894 35.0971825,2.25214712 35.2985186,2.59251399 L35.3152966,2.59251399 L35.3152966,0.439773078 L36.1533977,0.439773078 L36.1533977,4.90032859 C36.1533977,5.26296244 36.1621862,5.60253406 36.1845568,5.91109094 L35.4391342,5.91109094 Z M35.3152966,3.70427305 C35.3152966,3.17940826 34.9661543,2.73168268 34.4332531,2.73168268 C33.812467,2.73168268 33.4329646,3.27960972 33.4329646,4.05100192 C33.4329646,4.80728437 33.8268481,5.32499192 34.4164751,5.32499192 C34.9429847,5.32499192 35.3152966,4.86931385 35.3152966,4.32933931 L35.3152966,3.70427305 Z M41.4672305,5.99618266 C40.367073,5.99618266 39.6536084,5.17787073 39.6536084,4.06690691 C39.6536084,2.90902336 40.3822531,2.08355419 41.5295488,2.08355419 C42.6153252,2.08355419 43.3439698,2.86289888 43.3439698,4.00567269 C43.3447688,5.17787073 42.5929545,5.99618266 41.4672305,5.99618266 Z M41.4983896,2.69271545 C40.8943816,2.69271545 40.5068896,3.25575223 40.5068896,4.04304942 C40.5068896,4.81523687 40.9023711,5.37827365 41.4904001,5.37827365 C42.080027,5.37827365 42.4747095,4.77626963 42.4747095,4.02714443 C42.4763075,3.26370473 42.0888155,2.69271545 41.4983896,2.69271545 Z M47.8468659,5.91109094 L47.0087647,5.91109094 L47.0087647,3.75755478 C47.0087647,3.09431654 46.7531,2.76190217 46.248961,2.76190217 C45.7528115,2.76190217 45.4124577,3.18656551 45.4124577,3.68041556 L45.4124577,5.91109094 L44.5743566,5.91109094 L44.5743566,3.23268999 C44.5743566,2.90107087 44.5663671,2.54559426 44.5431975,2.15989816 L45.2798316,2.15989816 L45.3189803,2.73883993 L45.3421499,2.73883993 C45.5666556,2.33803409 46.0244553,2.08275894 46.5357849,2.08275894 C47.3267478,2.08275894 47.8468659,2.68476295 47.8468659,3.66451057 L47.8468659,5.91109094 Z M53.4802797,2.78575966 L52.5590875,2.78575966 L52.5590875,4.60688145 C52.5590875,5.07051202 52.7204759,5.30192968 53.0464485,5.30192968 C53.1942547,5.30192968 53.3180923,5.28602469 53.4179614,5.26296244 L53.441131,5.8959812 C53.2789436,5.95801067 53.0616286,5.98902541 52.7915826,5.98902541 C52.1316479,5.98902541 51.7369654,5.62639155 51.7369654,4.67686342 L51.7369654,2.78575966 L51.1872861,2.78575966 L51.1872861,2.16069341 L51.7369654,2.16069341 L51.7369654,1.47359767 L52.5590875,1.22627502 L52.5590875,2.15989816 L53.4802797,2.15989816 L53.4802797,2.78575966 Z M57.9128679,5.91109094 L57.0763647,5.91109094 L57.0763647,3.77345978 C57.0763647,3.10226904 56.8214988,2.76269742 56.3165609,2.76269742 C55.8827297,2.76269742 55.4784598,3.05614456 55.4784598,3.65019607 L55.4784598,5.91109094 L54.6419565,5.91109094 L54.6419565,0.439773078 L55.4784598,0.439773078 L55.4784598,2.69271545 L55.4952378,2.69271545 C55.7588921,2.28395711 56.1407913,2.08275894 56.6281523,2.08275894 C57.4255069,2.08275894 57.9128679,2.6998727 57.9128679,3.68041556 L57.9128679,5.91109094 Z M62.4541137,4.2362951 L59.9414082,4.2362951 C59.9573872,4.94645307 60.4295681,5.34725891 61.1286515,5.34725891 C61.5001644,5.34725891 61.8421161,5.28522944 62.1441201,5.16991823 L62.2743494,5.74886 C61.9180166,5.90313844 61.4985665,5.98027766 61.0104066,5.98027766 C59.8319517,5.98027766 59.1344662,5.23910495 59.1344662,4.08996915 C59.1344662,2.9400381 59.8487297,2.07560169 60.9161302,2.07560169 C61.8788679,2.07560169 62.482876,2.78575966 62.482876,3.85855149 C62.4882902,3.98515447 62.4786356,4.11195045 62.4541137,4.2362951 Z M61.6863204,3.64224358 C61.6863204,3.0633018 61.3931048,2.65454346 60.8578067,2.65454346 C60.3768373,2.65454346 59.9965359,3.0712543 59.9422071,3.64224358 L61.6863204,3.64224358 Z" id="Shape"></path>
                </g>
            </g>
        </g>
    </g>
</svg>