<?xml version="1.0" encoding="UTF-8"?>
<svg viewBox="0 0 98 32" version="1.1" xmlns="http://www.w3.org/2000/svg" xmlns:xlink="http://www.w3.org/1999/xlink">
    <!-- Generator: Sketch 48.1 (47250) - http://www.bohemiancoding.com/sketch -->
    <title>Google Copy</title>
    <desc>Created with Sketch.</desc>
    <defs>
        <path d="M13.8880639,7.59089696 L9.47006613,5.04586959 C9.47006613,5.04586959 1.42140707,0.408625187 0.948232611,0.136059731 C0.475074116,-0.136505724 0.00363968073,0.0286391239 0.00363968073,0.598235938 L0.00363968073,20.6012305 C0.00363968073,21.0282369 0.340581528,21.2123046 0.751673888,20.9756735 C1.16257469,20.73866 9.47006613,15.9527088 9.47006613,15.9527088 L13.8878723,13.4078566 C13.8878723,13.4078566 17.6363603,11.2485655 18.1345975,10.9616486 C18.6328666,10.6743654 18.5849761,10.2806172 18.1644971,10.0547058 C17.7442098,9.82857143 13.8880639,7.59089696 13.8880639,7.59089696 Z" id="path-1"></path>
        <linearGradient x1="49.9998541%" y1="0.000147098194%" x2="49.9998541%" y2="100.000147%" id="linearGradient-3">
            <stop stop-color="#257CB0" offset="0%"></stop>
            <stop stop-color="#4A93B5" offset="28.6%"></stop>
            <stop stop-color="#78BCBB" offset="76.7%"></stop>
            <stop stop-color="#89CFBD" offset="100%"></stop>
        </linearGradient>
        <path d="M13.8880639,7.59089696 L9.47006613,5.04586959 C9.47006613,5.04586959 1.42140707,0.408625187 0.948232611,0.136059731 C0.475074116,-0.136505724 0.00363968073,0.0286391239 0.00363968073,0.598235938 L0.00363968073,20.6012305 C0.00363968073,21.0282369 0.340581528,21.2123046 0.751673888,20.9756735 C1.16257469,20.73866 9.47006613,15.9527088 9.47006613,15.9527088 L13.8878723,13.4078566 C13.8878723,13.4078566 17.6363603,11.2485655 18.1345975,10.9616486 C18.6328666,10.6743654 18.5849761,10.2806172 18.1644971,10.0547058 C17.7442098,9.82857143 13.8880639,7.59089696 13.8880639,7.59089696 Z" id="path-4"></path>
        <linearGradient x1="0.00126473415%" y1="49.9985397%" x2="100.001265%" y2="49.9985397%" id="linearGradient-6">
            <stop stop-color="#52C1AD" offset="0%"></stop>
            <stop stop-color="#DEE89A" offset="100%"></stop>
        </linearGradient>
        <path d="M13.8880639,7.59089696 L9.47006613,5.04586959 C9.47006613,5.04586959 1.42140707,0.408625187 0.948232611,0.136059731 C0.475074116,-0.136505724 0.00363968073,0.0286391239 0.00363968073,0.598235938 L0.00363968073,20.6012305 C0.00363968073,21.0282369 0.340581528,21.2123046 0.751673888,20.9756735 C1.16257469,20.73866 9.47006613,15.9527088 9.47006613,15.9527088 L13.8878723,13.4078566 C13.8878723,13.4078566 17.6363603,11.2485655 18.1345975,10.9616486 C18.6328666,10.6743654 18.5849761,10.2806172 18.1644971,10.0547058 C17.7442098,9.82857143 13.8880639,7.59089696 13.8880639,7.59089696 Z" id="path-7"></path>
        <linearGradient x1="49.999885%" y1="0.000292074841%" x2="49.999885%" y2="100.000292%" id="linearGradient-9">
            <stop stop-color="#EC413D" offset="0%"></stop>
            <stop stop-color="#DA4452" offset="16.7%"></stop>
            <stop stop-color="#B0487A" offset="57.5%"></stop>
            <stop stop-color="#954A92" offset="86.2%"></stop>
            <stop stop-color="#8A4A9D" offset="100%"></stop>
        </linearGradient>
        <path d="M13.8880639,7.59089696 L9.47006613,5.04586959 C9.47006613,5.04586959 1.42140707,0.408625187 0.948232611,0.136059731 C0.475074116,-0.136505724 0.00363968073,0.0286391239 0.00363968073,0.598235938 L0.00363968073,20.6012305 C0.00363968073,21.0282369 0.340581528,21.2123046 0.751673888,20.9756735 C1.16257469,20.73866 9.47006613,15.9527088 9.47006613,15.9527088 L13.8878723,13.4078566 C13.8878723,13.4078566 17.6363603,11.2485655 18.1345975,10.9616486 C18.6328666,10.6743654 18.5849761,10.2806172 18.1644971,10.0547058 C17.7442098,9.82857143 13.8880639,7.59089696 13.8880639,7.59089696 Z" id="path-10"></path>
        <linearGradient x1="50.0010991%" y1="0.000547669119%" x2="50.0010991%" y2="99.9972617%" id="linearGradient-12">
            <stop stop-color="#F58879" offset="0%"></stop>
            <stop stop-color="#F69079" offset="11.9%"></stop>
            <stop stop-color="#FCB877" offset="71.3%"></stop>
            <stop stop-color="#FEC874" offset="100%"></stop>
        </linearGradient>
    </defs>
    <g id="Footer_desktop_dark" stroke="none" stroke-width="1" fill="none" fill-rule="evenodd" transform="translate(-1238.000000, -752.000000)">
        <g id="Group-7" transform="translate(967.000000, 752.000000)">
            <g id="Google-Copy" transform="translate(271.000000, 0.000000)">
                <g id="Group">
                    <path d="M97.9939498,27.6707138 C97.9939498,30.0572862 96.0551334,31.9927685 93.6636716,31.9927685 L4.34494869,31.9927685 C1.95329532,31.9929597 0.0137286203,30.0574774 0.0137286203,27.6707138 L0.0137286203,4.33463813 C0.0137286203,1.94825684 1.95329532,0.0129656546 4.34494869,0.0129656546 L93.66348,0.0129656546 C96.0549418,0.0129656546 97.9937583,1.94825684 97.9937583,4.33463813 L97.9937583,27.6707138 L97.9939498,27.6707138 Z" id="Shape" fill="#000000" fill-rule="nonzero"></path>
                    <g id="Clipped" transform="translate(7.359179, 6.498756)">
                        <mask id="mask-2" fill="white">
                            <use xlink:href="#path-1"></use>
                        </mask>
                        <g id="a"></g>
                        <polygon id="Shape" fill="url(#linearGradient-3)" fill-rule="nonzero" mask="url(#mask-2)" points="0.00383124287 -0.328983574 0.00383124287 21.3277372 10.9485428 10.4994724"></polygon>
                    </g>
                    <g id="Clipped" transform="translate(7.359179, 6.498756)">
                        <mask id="mask-5" fill="white">
                            <use xlink:href="#path-4"></use>
                        </mask>
                        <g id="d"></g>
                        <polygon id="Shape" fill="url(#linearGradient-6)" fill-rule="nonzero" mask="url(#mask-5)" points="13.8880639 7.59089696 9.47006613 5.04586959 0.00383124287 -0.407733201 0.00383124287 -0.328983574 10.9485428 10.4994724"></polygon>
                    </g>
                    <g id="Clipped" transform="translate(7.359179, 6.498756)">
                        <mask id="mask-8" fill="white">
                            <use xlink:href="#path-7"></use>
                        </mask>
                        <g id="g"></g>
                        <polygon id="Shape" fill="url(#linearGradient-9)" fill-rule="nonzero" mask="url(#mask-8)" points="0.00383124287 21.3277372 0.00383124287 21.4064868 9.47006613 15.9526929 13.8878723 13.4076655 10.9485428 10.4994724"></polygon>
                    </g>
                    <g id="Clipped" transform="translate(7.359179, 6.498756)">
                        <mask id="mask-11" fill="white">
                            <use xlink:href="#path-10"></use>
                        </mask>
                        <g id="j"></g>
                        <polygon id="Shape" fill="url(#linearGradient-12)" fill-rule="nonzero" mask="url(#mask-11)" points="13.8880639 7.59089696 10.9485428 10.4994724 13.8878723 13.4076655 18.9368597 10.4992812"></polygon>
                    </g>
                    <path d="M76.2665724,21.2315938 C75.85548,21.2315938 75.4804014,21.1559024 75.1407617,21.0047108 C74.801122,20.853328 74.5157104,20.6205197 74.2852452,20.306668 L74.2162987,20.306668 C74.2622577,20.6744211 74.2852452,21.0230762 74.2852452,21.3523942 L74.2852452,23.9440597 L73.3297332,23.9440597 L73.3297332,14.8184689 L74.1070924,14.8184689 L74.2392702,15.6805097 L74.2852452,15.6805097 C74.531195,15.3355022 74.8174048,15.0868293 75.1436192,14.9335351 C75.4698655,14.7802409 75.8443535,14.7035938 76.2663649,14.7035938 C77.1034914,14.7035938 77.7496306,14.9891568 78.2043991,15.5599004 C78.6593592,16.1306441 78.886935,16.9315202 78.886935,17.9617641 C78.886935,18.996213 78.6555279,19.7995739 78.1932885,20.3728024 C77.7306819,20.9454415 77.0885656,21.2315938 76.2665724,21.2315938 Z M76.1282645,15.5138357 C75.4832748,15.5138357 75.016821,15.6921692 74.7289031,16.0482787 C74.4409852,16.4045475 74.2930992,16.9716755 74.2852452,17.7494236 L74.2852452,17.96178 C74.2852452,18.8469328 74.4331311,19.4799881 74.7289031,19.861328 C75.024675,20.242668 75.4989829,20.4328362 76.151252,20.4328362 C76.696821,20.4328362 77.1240205,20.2128342 77.4332018,19.7722568 C77.742,19.3318706 77.8965747,18.7246192 77.8965747,17.9503116 C77.8965747,17.1653001 77.741984,16.5624291 77.4332018,16.1430682 C77.1241961,15.723325 76.6889669,15.5138357 76.1282645,15.5138357 Z M81.1006431,21.1165276 L80.144732,21.1165276 L80.144732,12.1750045 L81.1006431,12.1750045 L81.1006431,21.1165276 Z M86.5971357,21.1165276 L86.4069145,20.2200976 L86.3609396,20.2200976 C86.0459954,20.6149766 85.7322166,20.8823813 85.4192201,21.0217222 C85.1063991,21.1618278 84.7156123,21.2316098 84.2474344,21.2316098 C83.6216169,21.2316098 83.1312018,21.07067 82.775854,20.7489657 C82.4205063,20.4272932 82.2431197,19.9696884 82.2431197,19.3756257 C82.2431197,18.1039721 83.2626135,17.4372763 85.3012018,17.3757292 L86.3728164,17.3411329 L86.3728164,16.950443 C86.3728164,16.4561553 86.2661003,16.0910781 86.0528917,15.855785 C85.8400661,15.6199024 85.4987024,15.5021762 85.030732,15.5021762 C84.5044949,15.5021762 83.9093273,15.663116 83.2453569,15.9848044 L82.9515165,15.2550324 C83.262805,15.086447 83.6032109,14.9543853 83.9740753,14.8586083 C84.3445564,14.7628472 84.7158039,14.714887 85.0883922,14.714887 C85.8408643,14.714887 86.3984857,14.8813698 86.761512,15.2147178 C87.1241391,15.5480657 87.3055485,16.0824769 87.3055485,16.8181901 L87.3055485,21.1163524 L86.5971517,21.1163524 L86.5971517,21.1165276 L86.5971357,21.1165276 Z M84.4374641,20.4444798 C85.0322645,20.4444798 85.4996762,20.2816127 85.839699,19.9561175 C86.1791631,19.6305903 86.3494618,19.1745465 86.3494618,18.5881294 L86.3494618,18.0192972 L85.392992,18.0592454 C84.6328734,18.0865784 84.0851813,18.2039383 83.7488141,18.4132364 C83.4130057,18.6219612 83.2449897,18.9467078 83.2449897,19.3872852 C83.2449897,19.7319104 83.3493911,19.9945366 83.5589761,20.1741921 C83.7683375,20.354453 84.0608529,20.4444798 84.4374641,20.4444798 Z M87.860488,14.8184689 L88.8853455,14.8184689 L90.2676739,18.4101623 C90.5709168,19.2301523 90.7592064,19.8219373 90.8323831,20.1860428 L90.878374,20.1860428 C90.9283558,19.9903156 91.0331403,19.6563942 91.1921368,19.1827656 C91.3515165,18.7095032 91.8729327,17.255104 92.755667,14.8184689 L93.7812908,14.8184689 L91.0683877,21.990228 C90.7998176,22.6989746 90.4858632,23.2018477 90.1264766,23.4992613 C89.7676807,23.7959104 89.3268962,23.9440597 88.8052725,23.9440597 C88.5133318,23.9440597 88.2254139,23.911566 87.9409441,23.8465784 L87.9409441,23.0823853 C88.1520296,23.1282588 88.3884173,23.1513868 88.6495325,23.1513868 C89.3062075,23.1513868 89.7741938,22.7836336 90.0548324,22.0479522 L90.4059658,21.1516814 L87.860488,14.8184689 Z M58.5568278,15.4037392 C58.8602782,15.6543076 59.4939658,16.1807068 59.4939658,17.1824868 C59.4939658,18.1567267 58.9393934,18.6187118 58.384821,19.0527904 C58.2131813,19.2238447 58.015106,19.4088681 58.015106,19.6990184 C58.015106,19.988213 58.2129897,20.1464928 58.3587685,20.2651906 L58.8342258,20.6333101 C59.4150422,21.1209079 59.9426043,21.5691309 59.9426043,22.4783833 C59.9426043,23.7165874 58.7411266,24.9675978 56.470732,24.9675978 C54.5560844,24.9675978 53.6323717,24.0589189 53.6323717,23.0835321 C53.6323717,22.6095052 53.868935,21.9380309 54.648992,21.4764281 C55.4669624,20.9758328 56.5766819,20.9106541 57.1705086,20.8701483 C56.9850924,20.633326 56.774374,20.3829328 56.774374,19.9752315 C56.774374,19.7515978 56.8406545,19.6197113 56.9063763,19.4608741 C56.7605815,19.4742539 56.615569,19.4874425 56.4834071,19.4874425 C55.0844128,19.4874425 54.2923193,18.4466859 54.2923193,17.4196914 C54.2923193,16.8135869 54.5698928,16.1413479 55.1369168,15.6545147 C55.88974,15.0354286 56.7874002,14.9297123 57.5009852,14.9297123 L60.2200182,14.9297123 L59.3750217,15.4039303 L58.5568438,15.4039303 L58.5568438,15.4037392 L58.5568278,15.4037392 Z M57.6191311,21.2530015 C57.5135964,21.2392394 57.4472999,21.2392394 57.3158883,21.2392394 C57.1971357,21.2392394 56.4831836,21.2661901 55.9293774,21.4510224 C55.6389852,21.5555759 54.7937811,21.8717213 54.7937811,22.8075421 C54.7937811,23.7424072 55.7052497,24.4152354 57.1180205,24.4152354 C58.3846294,24.4152354 59.0587206,23.8079841 59.0587206,22.991992 C59.0587366,22.3187974 58.6229327,21.9646152 57.6191311,21.2530015 Z M58.0022554,18.7496426 C58.3054983,18.4463036 58.3315667,18.0252225 58.3315667,17.7878268 C58.3315667,16.8395819 57.7641437,15.3641732 56.6686157,15.3641732 C56.3249373,15.3641732 55.9556214,15.5352434 55.7443284,15.7990164 C55.5201847,16.0755958 55.4535211,16.4309248 55.4535211,16.7738298 C55.4535211,17.6563225 55.9684401,19.1187337 57.1044036,19.1187337 C57.4344812,19.1187337 57.7902121,18.960661 58.0022554,18.7496426 Z M50.2451539,21.0421742 C48.1496556,21.0421742 47.0292246,19.4111777 47.0292246,17.9378716 C47.0292246,16.2147297 48.4393136,14.7423952 50.4436283,14.7423952 C52.3803056,14.7423952 53.5931015,16.2543116 53.5931015,17.8461085 C53.5932771,19.3974156 52.3942896,21.0421742 50.2451539,21.0421742 Z M51.8926043,19.9769517 C52.2094481,19.5556794 52.2885473,19.0298537 52.2885473,18.5164679 C52.2885473,17.3587178 51.7349327,15.1495391 50.100333,15.1495391 C49.6655029,15.1495391 49.2306568,15.3208004 48.9143877,15.5975709 C48.4002189,16.0572464 48.3075188,16.636225 48.3075188,17.2023813 C48.3075188,18.5034704 48.9534504,20.6467058 50.5487799,20.6467058 C51.0627412,20.6467058 51.5900958,20.3972683 51.8926043,19.9769517 Z M43.1008438,21.0421742 C41.0049464,21.0421742 39.8843238,19.4111777 39.8843238,17.9378716 C39.8843238,16.2147297 41.2949715,14.7423952 43.2987275,14.7423952 C45.2359954,14.7423952 46.4485678,16.2543116 46.4485678,17.8461085 C46.4487754,19.3974156 45.2495964,21.0421742 43.1008438,21.0421742 Z M44.7486613,19.9769517 C45.0649304,19.5556794 45.1442372,19.0298537 45.1442372,18.5164679 C45.1442372,17.3587178 44.5902235,15.1495391 42.9556237,15.1495391 C42.5209692,15.1495391 42.085756,15.3208004 41.7696625,15.5975709 C41.2555097,16.0572464 41.1633683,16.636225 41.1633683,17.2023813 C41.1633683,18.5034704 41.8089327,20.6467058 43.4044698,20.6467058 C43.9186226,20.6467058 44.445626,20.3972683 44.7486613,19.9769517 Z M38.8774732,20.8359343 L36.9821414,21.2723066 C36.2132109,21.3915779 35.5243694,21.4965137 34.7958586,21.4965137 C31.1377879,21.4965137 29.7468552,18.8121453 29.7468552,16.7096068 C29.7468552,14.1447168 31.7210946,11.7652006 35.1008255,11.7652006 C35.8166933,11.7652006 36.5051836,11.8707098 37.1279361,12.0427357 C38.1217605,12.3204778 38.5855485,12.6639403 38.8772816,12.8625505 L37.7769487,13.907114 L37.3133683,14.0124321 L37.6445792,13.4833569 C37.1942166,13.0473668 36.3718404,12.2409477 34.8086933,12.2409477 C32.7147275,12.2409477 31.1374208,13.8283644 31.1374208,16.1421125 C31.1374208,18.6273131 32.9400205,20.9678208 35.8283786,20.9678208 C36.677382,20.9678208 37.1137765,20.7961931 37.5116351,20.6371488 L37.5116351,18.5088064 L35.5109601,18.6145067 L36.5706819,18.0453081 L39.3803238,18.0453081 L39.0360867,18.3757889 C38.9426203,18.4554943 38.9297856,18.4822539 38.9033501,18.5869985 C38.8895576,18.7062698 38.877106,19.0900786 38.877106,19.2221563 L38.877106,20.8359502 L38.8774732,20.8359502 L38.8774732,20.8359343 Z" id="Shape" fill="#F9F9F9" fill-rule="nonzero"></path>
                    <path d="M62.7453501,20.4551837 C62.3078221,20.4154266 62.2162395,20.3364858 62.2162395,19.820217 L62.2162395,12.3363265 C62.2189213,12.3078467 62.2206454,12.2786023 62.2233113,12.2510622 C62.2767731,11.7885037 62.4091425,11.7091807 62.8204105,11.4708452 L60.9247434,11.4708452 L59.9305519,11.9469746 L60.9437241,11.9469746 L60.9437241,11.9529 L60.9429578,11.9481215 L60.9429578,20.1115142 C60.9429578,20.3754783 60.8906613,20.4156177 60.5854869,20.8118507 L62.9313729,20.8118507 L63.421756,20.5217003 C63.1966705,20.4943673 62.9710103,20.481561 62.7453501,20.4551837 Z M68.1378084,20.5767486 C67.9935781,20.6556894 67.8487571,20.74801 67.7044949,20.8131887 C67.2694572,21.0100627 66.8221756,21.0628173 66.4265838,21.0628173 C66.006488,21.0628173 65.3478974,21.0356755 64.6760889,20.5503713 C63.742431,19.8932325 63.3344036,18.763994 63.3344036,17.7794166 C63.3344036,15.7443504 64.9925496,14.7464092 66.3480433,14.7464092 C66.8219681,14.7464092 67.3095097,14.8643425 67.7043033,15.1143693 C68.3617605,15.5469029 68.5327936,16.111546 68.6243763,16.4137222 L65.5323877,17.6616904 L64.5188324,17.7404241 C64.8473615,19.4081195 65.9791266,20.37911 67.2298198,20.37911 C67.900862,20.37911 68.3880046,20.1432434 68.8353022,19.9203743 L68.1378084,20.5767486 Z M66.9010992,16.6629686 C67.1507047,16.5714126 67.2822919,16.4922807 67.2822919,16.3085953 C67.2822919,15.7837252 66.6903649,15.179341 65.9790946,15.179341 C65.4520912,15.179341 64.4657537,15.58666 64.4657537,17.0045515 C64.4657537,17.2278029 64.4921893,17.4640518 64.5057902,17.7012404 L66.9010992,16.6629686 Z M69.408057,14.8362449 L69.408057,15.7026819 L69.3025222,15.7026819 L69.3025222,14.8362449 L69.015179,14.8362449 L69.015179,14.7463932 L69.6952246,14.7463932 L69.6952246,14.8362449 L69.408057,14.8362449 Z M70.591927,15.7026819 L70.591927,14.828217 L70.587138,14.828217 L70.3197172,15.7026819 L70.2371539,15.7026819 L69.9674344,14.828217 L69.9639704,14.828217 L69.9639704,15.7026819 L69.8681893,15.7026819 L69.8681893,14.7464092 L70.032358,14.7464092 L70.2764082,15.5193788 L70.2798563,15.5193788 L70.5202668,14.7464092 L70.6867503,14.7464092 L70.6867503,15.7026819 L70.591927,15.7026819 Z" id="Shape" fill="#F9F9F9" fill-rule="nonzero"></path>
                    <path d="M32.378919,9.19054654 L31.7203284,9.19054654 C31.7203284,9.10013738 31.6578791,8.8442011 31.5329806,8.42254654 L30.5822417,8.42254654 C30.4533364,8.83732006 30.3887799,9.09324042 30.3887799,9.19054654 L29.7694595,9.19054654 C29.7694595,9.13720259 29.9296055,8.69911 30.2498974,7.87645993 C30.5701733,7.05379393 30.7303352,6.60058537 30.7303352,6.51726431 L31.5082691,6.51726431 C31.5082691,6.59524938 31.6532816,7.04175212 31.9434983,7.85696366 C32.2337149,8.67217521 32.378919,9.11657541 32.378919,9.19054654 Z M31.4281802,8.03032753 C31.1935325,7.32404978 31.0762965,6.94216824 31.0762965,6.88461921 L31.0433478,6.88461921 C31.0433478,6.93796317 30.9218974,7.3198447 30.6791881,8.03032753 L31.4281802,8.03032753 Z M35.0324379,9.19054654 L34.5242235,9.19054654 C34.5242235,9.13435142 34.3355507,8.83808462 33.9583489,8.301555 C33.5633478,7.73616327 33.3382623,7.34967845 33.2834914,7.14154306 L33.2505428,7.14154306 C33.2848324,7.44123444 33.3020889,7.71227078 33.3020889,7.95465207 C33.3020889,8.2927785 33.311667,8.70487606 33.3308233,9.19075361 L32.8245245,9.19075361 C32.8450057,8.7664231 32.855366,8.30042409 32.855366,7.79256546 C32.855366,7.29294176 32.8450217,6.86783076 32.8245245,6.51747138 L33.4355918,6.51747138 C33.4355918,6.59010453 33.6049327,6.87968143 33.9438062,7.38601095 C34.3045336,7.92387855 34.5117879,8.28876456 34.5652497,8.48047785 L34.5960912,8.48047785 C34.5631585,8.17522748 34.5466682,7.90149925 34.5466682,7.65914983 C34.5466682,7.28835441 34.5370741,6.90758785 34.5179339,6.51747138 L35.0324698,6.51747138 C35.013106,6.85693579 35.0037195,7.28203086 35.0037195,7.79256546 C35.003512,8.30690692 35.0130901,8.77290592 35.0324379,9.19054654 Z M38.0148689,7.76140966 C38.0148689,8.15017222 37.8899863,8.48965256 37.6403649,8.77980289 C37.3905678,9.07014435 37.0407594,9.21502837 36.5907959,9.21502837 C36.38774,9.21502837 36.1078677,9.20679343 35.751179,9.1903554 C35.7689783,8.77693579 35.7779977,8.31072972 35.7779977,7.79218318 C35.7779977,7.29407267 35.7689943,6.8689776 35.751179,6.51707317 L36.1113318,6.51707317 C36.170317,6.51707317 36.2580525,6.51497063 36.3747298,6.51095669 C36.4911836,6.50694276 36.5674253,6.50484022 36.6030559,6.50484022 C37.09826,6.50484022 37.4572474,6.62812544 37.6804014,6.87450473 C37.9033797,7.12088402 38.0148689,7.41638626 38.0148689,7.76140966 Z M37.4531927,7.84968442 C37.4531927,7.5868671 37.3763763,7.36552713 37.2227434,7.18528223 C37.0691106,7.00541961 36.834447,6.91540866 36.5189441,6.91540866 C36.459959,6.91540866 36.3791038,6.92152514 36.2760433,6.93394923 C36.2896442,7.20783673 36.2965405,7.49378198 36.2965405,7.79216725 C36.2965405,8.11939871 36.3034367,8.44376307 36.3170217,8.76545147 C36.4050593,8.78314921 36.4946359,8.79211272 36.5844424,8.79221105 C36.8794481,8.79221105 37.097829,8.70067098 37.2397925,8.51792534 C37.381756,8.33519562 37.4531927,8.11250174 37.4531927,7.84968442 Z M40.7651266,9.19054654 L40.155959,9.19054654 C39.9967708,8.70600697 39.8747617,8.40687307 39.7897081,8.29333599 C39.7046545,8.17960777 39.567496,8.12283922 39.3782326,8.12283922 C39.2985428,8.12283922 39.2224766,8.12360378 39.1498905,8.12494176 C39.1498905,8.47684619 39.1560046,8.83196814 39.1684721,9.19054654 L38.5964675,9.19054654 C38.6142668,8.777111 38.6232862,8.31092086 38.6232862,7.79235839 C38.6232862,7.29426381 38.6142828,6.86915281 38.5964675,6.51726431 L38.952374,6.51726431 C38.9935599,6.51726431 39.0795872,6.51516177 39.2106157,6.51114783 C39.3416442,6.5071339 39.4627115,6.50501543 39.5738176,6.50501543 C40.2034823,6.50501543 40.5184105,6.71985665 40.5184105,7.14974614 C40.5184105,7.49054853 40.3387252,7.72794425 39.9793546,7.86231558 L39.9793546,7.8930891 C40.117854,7.93131707 40.2393044,8.0393111 40.3435143,8.21630662 C40.4475165,8.39349328 40.5881231,8.71823992 40.7651266,9.19054654 Z M39.9935143,7.30149527 C39.9935143,7.02912096 39.8178518,6.89285416 39.4667184,6.89285416 C39.337797,6.89285416 39.2238016,6.90241115 39.1251631,6.92152514 C39.1402965,7.13369039 39.1477674,7.41026979 39.1477674,7.75107218 C39.2232588,7.75393927 39.287049,7.75508611 39.339138,7.75508611 C39.775325,7.75527725 39.9935143,7.60408561 39.9935143,7.30149527 Z M43.7147845,7.80457541 C43.7147845,8.22471677 43.5858632,8.57314883 43.3278449,8.84972822 C43.0698107,9.1261324 42.7508597,9.26450174 42.370992,9.26450174 C42.008764,9.26450174 41.7055051,9.13758487 41.461455,8.88355998 C41.2172132,8.62972623 41.0951881,8.30690692 41.0951881,7.91562768 C41.0951881,7.49550224 41.2241095,7.14705426 41.4821437,6.87047486 C41.7399863,6.59408661 42.0589373,6.45570134 42.4389806,6.45570134 C42.8012246,6.45570134 43.1042919,6.58223594 43.3485336,6.83549627 C43.5927754,7.08877252 43.7147845,7.41160777 43.7147845,7.80457541 Z M43.1470103,7.86403584 C43.1470103,7.57789945 43.073626,7.34585565 42.9269054,7.16790443 C42.7799772,6.98995321 42.598951,6.90107317 42.3836351,6.90107317 C42.1832611,6.90107317 42.0131539,6.99071777 41.8733136,7.17000697 C41.7334732,7.34929617 41.6631699,7.57581284 41.6631699,7.84970035 C41.6631699,8.13430762 41.7369213,8.36596914 41.8844082,8.54470085 C42.0319111,8.72341663 42.2125701,8.81267894 42.4267366,8.81267894 C42.626919,8.81267894 42.7972178,8.72265207 42.9370582,8.54258238 C43.0768985,8.36271976 43.1470103,8.13639423 43.1470103,7.86403584 Z M44.8783489,9.19054654 L44.296,9.19054654 C44.3138153,8.76621603 44.3228187,8.30021702 44.3228187,7.79235839 C44.3228187,7.29271877 44.3138312,6.86762369 44.296,6.51726431 L44.8783489,6.51726431 C44.8605336,6.86227178 44.8515302,7.28717571 44.8515302,7.79235839 C44.8515302,8.3082449 44.8605336,8.77443504 44.8783489,9.19054654 Z M47.8609715,7.76140966 C47.8609715,8.15017222 47.736073,8.48965256 47.4864675,8.77980289 C47.2366864,9.07014435 46.886878,9.21502837 46.4368985,9.21502837 C46.2338426,9.21502837 45.9539704,9.20679343 45.5972657,9.1903554 C45.6150969,8.77693579 45.6241003,8.31072972 45.6241003,7.79218318 C45.6241003,7.29407267 45.6151129,6.8689776 45.5972657,6.51707317 L45.9574185,6.51707317 C46.0164196,6.51707317 46.1041551,6.51497063 46.2208164,6.51095669 C46.3373022,6.50694276 46.4135279,6.50484022 46.4491745,6.50484022 C46.9443626,6.50484022 47.3033501,6.62812544 47.526504,6.87450473 C47.7494823,7.12088402 47.8609715,7.41638626 47.8609715,7.76140966 Z M47.2993113,7.84968442 C47.2993113,7.5868671 47.2224949,7.36552713 47.0688461,7.18528223 C46.9152132,7.00541961 46.6805656,6.91540866 46.3650468,6.91540866 C46.3060456,6.91540866 46.2252064,6.92152514 46.122146,6.93394923 C46.1357469,7.20783673 46.1426271,7.49378198 46.1426271,7.79216725 C46.1426271,8.11939871 46.1495393,8.44376307 46.1631243,8.76545147 C46.2511621,8.78314848 46.3407385,8.79211199 46.430545,8.79221105 C46.7255348,8.79221105 46.9439316,8.70067098 47.0858791,8.51792534 C47.2278586,8.33519562 47.2993113,8.11250174 47.2993113,7.84968442 Z M51.8178791,9.19054654 L51.1592885,9.19054654 C51.1592885,9.10013738 51.0968392,8.8442011 50.9717491,8.42254654 L50.0210262,8.42254654 C49.8921049,8.83732006 49.8275325,9.09324042 49.8275325,9.19054654 L49.2084196,9.19054654 C49.2084196,9.13720259 49.3685496,8.69911 49.6888575,7.87645993 C50.0091494,7.05379393 50.1692953,6.60058537 50.1692953,6.51726431 L50.9472292,6.51726431 C50.9472292,6.59524938 51.0924333,7.04175212 51.3824584,7.85696366 C51.6724835,8.67217521 51.8178791,9.11657541 51.8178791,9.19054654 Z M50.8671562,8.03032753 C50.6324926,7.32404978 50.515049,6.94216824 50.515049,6.88461921 L50.4821003,6.88461921 C50.4821003,6.93796317 50.3608415,7.3198447 50.1181482,8.03032753 L50.8671562,8.03032753 Z M54.2181528,7.21721852 C54.2181528,7.54444998 54.0963033,7.78605077 53.8528278,7.94202091 C53.6093523,8.09799104 53.310707,8.17615132 52.9566842,8.17615132 C52.8921437,8.17615132 52.8463603,8.17481334 52.8187754,8.17213738 C52.8187754,8.42960279 52.8262303,8.76889199 52.8413797,9.19054654 L52.2630376,9.19054654 C52.2808369,8.79507815 52.2898563,8.32887208 52.2898563,7.79235839 C52.2898563,7.2995998 52.2808689,6.87450473 52.2630376,6.51726431 L52.6210673,6.51726431 C52.6718312,6.51726431 52.7691288,6.51516177 52.9131995,6.51114783 C53.0572702,6.5071339 53.1819772,6.50501543 53.2877035,6.50501543 C53.5482281,6.50501543 53.7685245,6.56388651 53.9482098,6.68162867 C54.1279111,6.79938676 54.2181528,6.97772026 54.2181528,7.21721852 Z M53.6873341,7.33018218 C53.6873341,7.03733997 53.4924994,6.89075162 53.102878,6.89075162 C53.0053729,6.89075162 52.902504,6.90105724 52.7942714,6.92152514 C52.8094048,7.18032852 52.8168757,7.4731548 52.8168757,7.80038626 C52.8511494,7.80325336 52.8910103,7.8044002 52.9362189,7.8044002 C53.4369624,7.80457541 53.6873341,7.64651867 53.6873341,7.33018218 Z M56.6862395,7.21721852 C56.6862395,7.54444998 56.5644059,7.78605077 56.321122,7.94202091 C56.0776465,8.09799104 55.7788096,8.17615132 55.4248187,8.17615132 C55.3602463,8.17615132 55.3144789,8.17481334 55.286878,8.17213738 C55.286878,8.42960279 55.2943649,8.76889199 55.3094823,9.19054654 L54.7311562,9.19054654 C54.7489715,8.79507815 54.7579909,8.32887208 54.7579909,7.79235839 C54.7579909,7.2995998 54.7489875,6.87450473 54.7311562,6.51726431 L55.0891859,6.51726431 C55.1399658,6.51726431 55.2372634,6.51516177 55.3813181,6.51114783 C55.5253729,6.5071339 55.6500798,6.50501543 55.7558221,6.50501543 C56.0163307,6.50501543 56.2366431,6.56388651 56.4163284,6.68162867 C56.5959977,6.79938676 56.6862395,6.97772026 56.6862395,7.21721852 Z M56.1554208,7.33018218 C56.1554208,7.03733997 55.9606021,6.89075162 55.5709806,6.89075162 C55.4734755,6.89075162 55.3705906,6.90105724 55.262374,6.92152514 C55.2774914,7.18032852 55.2849783,7.4731548 55.2849783,7.80038626 C55.319252,7.80325336 55.3591129,7.8044002 55.4043216,7.8044002 C55.905049,7.80457541 56.1554208,7.64651867 56.1554208,7.33018218 Z M60.721496,7.80457541 C60.721496,8.22471677 60.5925747,8.57314883 60.3345405,8.84972822 C60.0765222,9.12630762 59.7575553,9.26450174 59.3776876,9.26450174 C59.0154595,9.26450174 58.7122007,9.13758487 58.4681665,8.88355998 C58.2241003,8.62972623 58.1018997,8.30690692 58.1018997,7.91562768 C58.1018997,7.49550224 58.230821,7.14705426 58.4888392,6.87047486 C58.7468734,6.59389547 59.0658404,6.45570134 59.4456921,6.45570134 C59.8079361,6.45570134 60.111179,6.58223594 60.3552292,6.83549627 C60.5992794,7.08877252 60.721496,7.41160777 60.721496,7.80457541 Z M60.1535143,7.86403584 C60.1535143,7.57789945 60.08013,7.34585565 59.9334094,7.16790443 C59.7866887,6.98995321 59.605455,6.90107317 59.3901551,6.90107317 C59.1897651,6.90107317 59.0196579,6.99071777 58.8798176,7.17000697 C58.7399772,7.34929617 58.6698655,7.57581284 58.6698655,7.84970035 C58.6698655,8.13430762 58.7436328,8.36596914 58.8911197,8.54470085 C59.0386066,8.72341663 59.2192657,8.81267894 59.4332406,8.81267894 C59.6336146,8.81267894 59.8037218,8.72265207 59.9435621,8.54259831 C60.0835941,8.36271976 60.1535143,8.13639423 60.1535143,7.86403584 Z M63.5106408,9.19054654 L63.0024265,9.19054654 C63.0024265,9.13435142 62.8139133,8.83808462 62.4365519,8.301555 C62.0415507,7.73616327 61.8164493,7.34967845 61.7616784,7.14154306 L61.7287298,7.14154306 C61.7630194,7.44123444 61.7802759,7.71227078 61.7802759,7.95465207 C61.7802759,8.2927785 61.789854,8.70487606 61.8090262,9.19075361 L61.3027115,9.19075361 C61.3232087,8.7664231 61.333553,8.30042409 61.333553,7.79256546 C61.333553,7.29294176 61.3232406,6.86783076 61.3027115,6.51747138 L61.9137948,6.51747138 C61.9137948,6.59010453 62.0833273,6.87968143 62.4220091,7.38601095 C62.7829122,7.92387855 62.9899909,8.28876456 63.0434527,8.48047785 L63.0742942,8.48047785 C63.0413455,8.17522748 63.0248712,7.90149925 63.0248712,7.65914983 C63.0248712,7.28835441 63.015293,6.90758785 62.9961209,6.51747138 L63.5106568,6.51747138 C63.491309,6.85693579 63.4819225,7.28203086 63.4819225,7.79256546 C63.4819065,8.30690692 63.4914846,8.77290592 63.5106408,9.19054654 Z" id="Shape" fill="#F9F9FA" fill-rule="nonzero"></path>
                </g>
            </g>
        </g>
    </g>
</svg>